<?xml version="1.0" encoding="UTF-8"?>
<svg id="Camada_2" data-name="Camada 2" xmlns="http://www.w3.org/2000/svg" viewBox="0 0 433.32 350.71">
  <defs>
    <style>
      .cls-1, .cls-2, .cls-3 {
        stroke: #1e1a4d;
        stroke-linecap: round;
        stroke-linejoin: round;
        stroke-width: 20px;
      }

      .cls-1, .cls-4 {
        fill: #8c52ff;
      }

      .cls-5, .cls-3 {
        fill: #fff;
      }

      .cls-2 {
        fill: #1e1a4d;
      }
    </style>
  </defs>
  <g id="Camada_1-2" data-name="Camada 1">
    <g>
      <g>
        <path class="cls-2" d="M216.98,257h92.16c7.64,0,13.84,6.19,13.84,13.84v56.04c0,7.64-6.19,13.84-13.84,13.84H31.47c-7.64,0-13.84-6.19-13.84-13.84v-21.87c0-2.77.83-5.48,2.39-7.77l120.29-177.29c6.23-9.19-.35-21.6-11.45-21.6H37.85c-7.64,0-13.84-6.19-13.84-13.84V28.47c0-7.64,6.19-13.84,13.84-13.84h277.68c7.64,0,13.84,6.19,13.84,13.84v20.68c0,2.78-.84,5.49-2.4,7.78l-121.43,178.45c-6.25,9.18.33,21.62,11.44,21.62Z"/>
        <rect class="cls-2" x="339.87" y="257" width="83.45" height="83.45" rx="13.41" ry="13.41"/>
      </g>
      <g>
        <polygon class="cls-3" points="177.89 244.94 305.99 244.94 305.99 326.09 10 326.09 10 287.36 143.13 91.15 16.18 91.15 16.18 10 312.18 10 312.18 47.59 177.89 244.94"/>
        <rect class="cls-1" x="324.24" y="244.94" width="80.89" height="80.89"/>
      </g>
      <g>
        <polygon class="cls-5" points="177.89 244.94 305.99 244.94 305.99 326.09 10 326.09 10 287.36 143.13 91.15 16.18 91.15 16.18 10 312.18 10 312.18 47.59 177.89 244.94"/>
        <rect class="cls-4" x="324.24" y="244.94" width="80.89" height="80.89"/>
      </g>
    </g>
  </g>
</svg>